# xmcd
#
# Track frame offsets:
#	150
#	17481
#	39513
#	60589
#	80601
#	96951
#	114605
#	136018
#
# Disc length: 2100 seconds
#
# Revision: 2
# Processed by: cddbd v1.5.2PL0 Copyright (c) Steve Scherf et al.
# Submitted via: dBpowerAMP V4.0
#
DISCID=5d083208
DTITLE=Resonance - Chinwe Ike
DYEAR=2005
DGENRE=Contemporary Christian
TTITLE0=Chinwe Ike
TTITLE1=Nna Anyi
TTITLE2=Judgement  Day (ft dekumzy)
TTITLE3=Holy Ghost Fire
TTITLE4=Lee Lee
TTITLE5=I Don Die (ft dusky)
TTITLE6=Thank You (ft dekumzy, obio)
TTITLE7=Lee Lee (remix)
EXTD=Igbo - Nigeria Pidgin. Nna Anyi =Our Father
EXTT0=
EXTT1=
EXTT2=
EXTT3=
EXTT4=
EXTT5=
EXTT6=
EXTT7=
PLAYORDER=
